<svg xmlns="http://www.w3.org/2000/svg" viewBox="0 0 24 24"><defs><style>.cls-1{fill:none;stroke:#ff4f00;stroke-linecap:round;stroke-miterlimit:10;stroke-width:2px;}.cls-2{fill:#ff4f00;}</style></defs><title>Prancheta 1 cópia 2</title><g id="search"><line class="cls-1" x1="18.01" y1="8" x2="21" y2="8"/><line class="cls-1" x1="3" y1="8" x2="10.01" y2="8"/><path class="cls-2" d="M14,6a2,2,0,1,0,2,2,2,2,0,0,0-2-2Z"/><path class="cls-2" d="M9,10a2,2,0,1,0,2,2,2,2,0,0,0-2-2Z"/><path class="cls-2" d="M20,14a2,2,0,1,0,2,2,2,2,0,0,0-2-2Z"/><line class="cls-1" x1="12.98" y1="12" x2="21" y2="12"/><line class="cls-1" x1="3" y1="12" x2="5.02" y2="12"/><line class="cls-1" x1="3" y1="16" x2="16" y2="16"/></g></svg>